<?xml version="1.0" encoding="UTF-8" standalone="no"?>
<svg xmlns="http://www.w3.org/2000/svg" id="board" 
     viewBox="-46 -27 62 46">
  <!-- 
   0.86602540 = sqrt(3)/2;
   1.73205081 = sqrt(3); 
   -->
   <g transform="scale(10)">
  <path fill="darkgray" d="M 
           -3 1.73205081
           l
            0   -1.73205081 
           -1    0          
           -0.5 0.86602540  
           1.5 0.86602540
           z" 
        class="monotile">
  </path>
  <path fill="lightgray" d="M 
           -3 1.73205081
           l
            0   -1.73205081 
           1    0          
           0.5 0.86602540  
           -1.5 0.86602540
           z" 
        class="monotile">
  </path>
  <path fill="darkgray" d="M 
           -3 -1.73205081
           l
            1.5 0.86602540
            -0.5 0.86602540
            -1 0
           z" 
        class="monotile">
  </path>
  <path fill="gray" d="M 
           -3 -1.73205081
           l
            1.5 0.86602540
            0.5 -0.86602540
            -0.5 -0.86602540
           z" 
        class="monotile">
  </path>
  <path fill="gray" d="M 
           0 0 
           l
            -1.5 0.86602540
            -0.5 -0.86602540
            0.5 -0.86602540
           z" 
        class="monotile">
  </path>
  <path fill="darkgray" d="M 
           0 0 
           l
            0   1.73205081 
            -1 0
            -0.5 -0.86602540
           z" 
        class="monotile">
  </path>
  <path fill="gray" d="M 
           0 0 
           l
            1.5 0.86602540
            -0.5 0.86602540
            -1 0
           z" 
        class="monotile">
  </path>
  <path fill="darkgray" d="M 
           0 0 
           l
            0   -1.73205081 
           -1    0          
           -0.5 0.86602540  
           1.5 0.86602540
           z" 
        class="monotile">
  </path>
  </g>
</svg>
