<svg id="svg" xmlns="http://www.w3.org/2000/svg" viewBox="-0.32320508075688775 -2.839230484541326 3.8784609690826524 5.678460969082652">
            <path id="tile" d="M 0 0 c -0.18301270189221924 0.6830127018922194 0.6830127018922194 0.18301270189221924 0.5000000000000001 0.8660254037844386 c 0.5 0.5 0.5 -0.5 1 0 c -0.5 0.5 0.5 0.5 0 1 c 0.18301270189221924 0.6830127018922194 0.6830127018922194 -0.18301270189221924 0.8660254037844386 0.5000000000000001 c 0.6830127018922194 -0.18301270189221924 -0.18301270189221924 -0.6830127018922194 0.5000000000000001 -0.8660254037844386 c 0.18301270189221924 -0.6830127018922194 -0.6830127018922194 -0.18301270189221924 -0.5000000000000001 -0.8660254037844386 c 0.6830127018922194 0.18301270189221924 0.18301270189221924 -0.6830127018922194 0.8660254037844386 -0.5000000000000001 c 0.5 -0.5 -0.5 -0.5 0 -1 c 0.5 -0.5 -0.5 -0.5 0 -1 c -0.18301270189221924 -0.6830127018922194 -0.6830127018922194 0.18301270189221924 -0.8660254037844386 -0.5000000000000001 c -0.6830127018922194 0.18301270189221924 0.18301270189221924 0.6830127018922194 -0.5000000000000001 0.8660254037844386 c -0.5 -0.5 -0.5 0.5 -1 0 c -0.5 0.5 0.5 0.5 0 1 c -0.6830127018922194 -0.18301270189221924 -0.18301270189221924 0.6830127018922194 -0.8660254037844386 0.5000000000000001 z"></path></svg>