<?xml version="1.0" encoding="UTF-8" standalone="no"?>
<svg xmlns="http://www.w3.org/2000/svg" id="board" 
     viewBox="-1 -1 62 46">
     <g transform="scale(10)">
  <!-- 
   1.73205081 = sqrt(3); 
   0.86602540 = sqrt(3)/2; 
   3.46410161 = 2*sqrt(3);
   -->
  <path fill="darkgray" d="M 
           0 1.73205081
           l
            0   -1.73205081 
           1    0          
           0.5 0.86602540  
           -1.5 0.86602540
           z" 
        class="monotile">
  </path>
  <path fill="lightgray" d="M 
           0 1.73205081
           l
           1.5 -0.86602540
           0.5 0.86602540
           -0.5 0.86602540
           z" 
        class="monotile">
  </path>
  <path fill="darkgray" d="M 
           3 0
           l
            0   1.73205081 
           -1    0          
           -0.5 -0.86602540  
           1.5 -0.86602540
           z" 
        class="monotile">
  </path>
  <path fill="lightgray" d="M 
           3 0
           l
            0   1.73205081 
           1    0          
           0.5 -0.86602540  
           -1.5 -0.86602540
           z" 
        class="monotile">
  </path>
  <path fill="gray" d="M 
           6 1.73205081
           l
           -1.5 -0.86602540
           -0.5 0.86602540
           0.5 0.86602540
           z" 
        class="monotile">
  </path>
  <path fill="darkgray" d="M 
           6 1.73205081
           l
            0   1.73205081 
           -1    0          
           -0.5 -0.86602540  
           1.5 -0.86602540
           z" 
        class="monotile">
  </path>
  <path fill="lightgray" d="M 
           3 3.46410161
           l
           1.5 -0.86602540
           0.5 0.86602540
           -0.5 0.86602540
           z" 
        class="monotile">
  </path>
  <path fill="darkgray" d="M 
           3 3.46410161
           l
            0   -1.73205081 
           1    0          
           0.5 0.86602540  
           -1.5 0.86602540
           z" 
        class="monotile">
  </path>
  <path fill="gray" d="M 
           3 3.46410161
           l
            0   -1.73205081 
           -1    0          
           -0.5 0.86602540  
           1.5 0.86602540
           z" 
        class="monotile">
  </path>
  <path fill="lightgray" d="M 
           3 3.46410161
           l
           -1.5 -0.86602540
           -0.5 0.86602540
           0.5 0.86602540
           z" 
        class="monotile">
  </path>
  </g>
</svg>
